# xmcd CD database file
#
# Track frame offsets:
#	150
#	16859
#	29779
#	46061
#	60212
#	74984
#	91691
#	107930
#	122160
#	138397
#	156064
#
# Disc length: 2335 seconds
#
# Revision: 3
# Processed by: cddbd v1.5.2PL0 Copyright (c) Steve Scherf et al.
# Submitted via: CDex 1.51
#
DISCID=92091d0b
DTITLE=Tyler Farr - Redneck Crazy
DYEAR=2013
DGENRE=Country
TTITLE0=Tyler Farr - Dirty
TTITLE1=Tyler Farr - Makes You Wanna Drink
TTITLE2=Tyler Farr - Redneck Crazy
TTITLE3=Tyler Farr - Whiskey In My Water
TTITLE4=Tyler Farr - Hot Mess
TTITLE5=Tyler Farr - Hello Goodbye
TTITLE6=Tyler Farr - Ain't Even Drinkin'
TTITLE7=Tyler Farr - Wish I Had A Boat
TTITLE8=Tyler Farr feat. Colt Ford - Chicks, Trucks, And Beer
TTITLE9=Tyler Farr - Cowgirl
TTITLE10=Tyler Farr - Living With The Blues
EXTD=YEAR: 2013
EXTT0=
EXTT1=
EXTT2=
EXTT3=
EXTT4=
EXTT5=
EXTT6=
EXTT7=
EXTT8=
EXTT9=
EXTT10=
PLAYORDER=
